<svg xmlns="http://www.w3.org/2000/svg" width="15" height="14" viewBox="0 0 15 14" fill="none">
  <g clip-path="url(#clip0_1_38681)">
    <path d="M11.8418 0.226727C11.3374 -0.00652221 8.78059 0.259897 6.9363 1.92603C4.03174 4.65911 4.10148 8.25842 4.10148 8.25842C4.10148 8.25842 4.00579 8.62903 3.5964 8.09173C2.70088 7.01691 3.17008 4.54323 3.22244 4.19835C3.29646 3.71335 2.96809 3.69847 2.8311 3.85921C-0.404084 8.09151 2.51785 11.5575 4.43143 12.6576C6.67112 13.9451 11.0902 13.9447 12.8508 10.2915C15.0424 5.74201 12.4735 0.518662 11.8418 0.226727Z" fill="#79AC6A"/>
    <path d="M11.7913 4.24089C12.0159 2.82204 12.0173 1.45529 11.8326 0.223762C11.3113 -0.00332162 8.77123 0.267988 6.93619 1.92604C4.03163 4.65912 4.10137 8.25844 4.10137 8.25844C4.10137 8.25844 4.00568 8.62904 3.59629 8.09174C2.70077 7.01692 3.16997 4.54324 3.22233 4.19836C3.29635 3.71336 2.96798 3.69848 2.83099 3.85922C0.875663 6.4171 1.17063 8.69389 2.13137 10.339C3.09301 11.3117 4.18736 11.9511 5.2009 12.0936C8.08967 12.4997 11.0398 8.98391 11.7913 4.24089Z" fill="#CAE5C2"/>
    <path d="M11.7914 4.24089C12.0159 2.82204 12.0173 1.45529 11.8327 0.223762C11.3113 -0.00332192 9.28808 0.785517 7.45282 2.44399C4.54826 5.17686 4.1014 8.25844 4.1014 8.25844C4.1014 8.25844 4.00571 8.62904 3.59632 8.09174C2.70081 7.01692 3.00864 5.16006 3.06122 4.8154C3.13547 4.33019 2.80688 4.31552 2.66989 4.47626C0.714783 7.03414 1.17089 8.6941 2.13186 10.339C3.0935 11.3117 4.18784 11.9511 5.20139 12.0936C8.0897 12.4997 11.0398 8.98391 11.7914 4.24089Z" fill="#99C08E"/>
  </g>
  <defs>
    <clipPath id="clip0_1_38681">
      <rect width="14.4438" height="13.608" fill="white" transform="translate(0.291504 -0.00799561)"/>
    </clipPath>
  </defs>
</svg>